<?xml version="1.0" encoding="UTF-8"?>
<svg xmlns="http://www.w3.org/2000/svg" viewBox="0 0 24 24" fill="none" stroke="currentColor" stroke-width="1.6" stroke-linecap="round" stroke-linejoin="round">
  <!-- Microchip body -->
  <rect x="6" y="6" width="12" height="12" rx="1.2"/>
  <!-- Chip pins -->
  <line x1="3"  y1="9"  x2="6"  y2="9"/>
  <line x1="3"  y1="12" x2="6"  y2="12"/>
  <line x1="3"  y1="15" x2="6"  y2="15"/>
  <line x1="18" y1="9"  x2="21" y2="9"/>
  <line x1="18" y1="12" x2="21" y2="12"/>
  <line x1="18" y1="15" x2="21" y2="15"/>
  <line x1="9"  y1="3"  x2="9"  y2="6"/>
  <line x1="12" y1="3"  x2="12" y2="6"/>
  <line x1="15" y1="3"  x2="15" y2="6"/>
  <line x1="9"  y1="18" x2="9"  y2="21"/>
  <line x1="12" y1="18" x2="12" y2="21"/>
  <line x1="15" y1="18" x2="15" y2="21"/>
  <!-- Lightning bolt (flash) in the chip -->
  <path d="M13.2 8.2 L9.8 12.4 L11.8 12.4 L10.6 15.8 L14.2 11.4 L12.2 11.4 Z" fill="currentColor" stroke="none"/>
</svg>
